<svg width="195" height="38" viewBox="0 0 195 38" fill="none" xmlns="http://www.w3.org/2000/svg">
<path d="M40 15.7807C40 24.4962 31.0457 22.8821 20 22.8821C8.9543 22.8821 0 24.4962 0 15.7807C0 7.06528 8.9543 0 20 0C31.0457 0 40 7.06528 40 15.7807Z" fill="#E15D3A"/>
<path d="M32 26H8C4.68629 26 2 28.6863 2 32C2 35.3137 4.68629 38 8 38H32C35.3137 38 38 35.3137 38 32C38 28.6863 35.3137 26 32 26Z" fill="#E15D3A"/>
<path d="M52.2642 14.4545H56.0568L60.0625 24.2272H60.2329L64.2386 14.4545H68.0312V29H65.0483V19.5326H64.9275L61.1633 28.9289H59.1321L55.3679 19.4971H55.2471V29H52.2642V14.4545Z" fill="#E15D3A"/>
<path d="M73.6189 29.2059C72.9229 29.2059 72.3026 29.0852 71.7581 28.8437C71.2136 28.5975 70.7827 28.2353 70.4655 27.7571C70.153 27.2741 69.9968 26.6728 69.9968 25.9531C69.9968 25.347 70.108 24.838 70.3306 24.4261C70.5531 24.0142 70.8561 23.6827 71.2397 23.4318C71.6232 23.1808 72.0588 22.9914 72.5465 22.8636C73.0389 22.7358 73.555 22.6458 74.0948 22.5937C74.7292 22.5274 75.2406 22.4659 75.6289 22.409C76.0171 22.3475 76.2988 22.2575 76.474 22.1392C76.6492 22.0208 76.7368 21.8456 76.7368 21.6136V21.571C76.7368 21.1212 76.5948 20.7732 76.3107 20.5269C76.0313 20.2807 75.6336 20.1576 75.1175 20.1576C74.573 20.1576 74.1398 20.2784 73.8178 20.5198C73.4958 20.7566 73.2827 21.0549 73.1786 21.4147L70.3803 21.1875C70.5223 20.5246 70.8017 19.9517 71.2184 19.4687C71.635 18.981 72.1724 18.607 72.8306 18.3465C73.4934 18.0814 74.2605 17.9488 75.1317 17.9488C75.7378 17.9488 76.3178 18.0198 76.8718 18.1619C77.4305 18.3039 77.9253 18.5241 78.3561 18.8224C78.7917 19.1207 79.135 19.5042 79.386 19.973C79.6369 20.437 79.7624 20.9933 79.7624 21.642V29H76.8931V27.4872H76.8078C76.6326 27.8281 76.3983 28.1287 76.1047 28.3892C75.8112 28.6448 75.4584 28.8461 75.0465 28.9929C74.6345 29.1349 74.1587 29.2059 73.6189 29.2059ZM74.4854 27.1179C74.9305 27.1179 75.3235 27.0303 75.6644 26.8551C76.0053 26.6751 76.2728 26.4337 76.4669 26.1306C76.6611 25.8276 76.7581 25.4843 76.7581 25.1008V23.9431C76.6634 24.0047 76.5332 24.0615 76.3675 24.1136C76.2065 24.1609 76.0242 24.2059 75.8206 24.2485C75.617 24.2864 75.4134 24.3219 75.2098 24.3551C75.0062 24.3835 74.8216 24.4095 74.6559 24.4332C74.3007 24.4853 73.9906 24.5681 73.7255 24.6818C73.4603 24.7954 73.2543 24.9493 73.1076 25.1434C72.9608 25.3328 72.8874 25.5696 72.8874 25.8536C72.8874 26.2656 73.0365 26.5804 73.3348 26.7983C73.6379 27.0113 74.0214 27.1179 74.4854 27.1179Z" fill="#E15D3A"/>
<path d="M85.1353 14.4545V29H82.1097V14.4545H85.1353Z" fill="#E15D3A"/>
<path d="M93.3615 18.0909V20.3636H86.7919V18.0909H93.3615ZM88.2833 15.4772H91.3089V25.6477C91.3089 25.927 91.3515 26.1448 91.4367 26.3011C91.522 26.4526 91.6403 26.5591 91.7919 26.6207C91.9481 26.6822 92.128 26.713 92.3316 26.713C92.4737 26.713 92.6157 26.7012 92.7578 26.6775C92.8998 26.6491 93.0087 26.6278 93.0845 26.6136L93.5603 28.865C93.4088 28.9124 93.1957 28.9668 92.9211 29.0284C92.6465 29.0947 92.3127 29.1349 91.9197 29.1491C91.1905 29.1775 90.5513 29.0804 90.0021 28.8579C89.4576 28.6354 89.0338 28.2897 88.7308 27.821C88.4277 27.3522 88.2786 26.7604 88.2833 26.0454V15.4772Z" fill="#E15D3A"/>
<path d="M98.4431 29.2059C97.7471 29.2059 97.1268 29.0852 96.5823 28.8437C96.0378 28.5975 95.607 28.2353 95.2897 27.7571C94.9772 27.2741 94.821 26.6728 94.821 25.9531C94.821 25.347 94.9322 24.838 95.1548 24.4261C95.3773 24.0142 95.6804 23.6827 96.0639 23.4318C96.4474 23.1808 96.883 22.9914 97.3707 22.8636C97.8631 22.7358 98.3792 22.6458 98.919 22.5937C99.5535 22.5274 100.065 22.4659 100.453 22.409C100.841 22.3475 101.123 22.2575 101.298 22.1392C101.473 22.0208 101.561 21.8456 101.561 21.6136V21.571C101.561 21.1212 101.419 20.7732 101.135 20.5269C100.856 20.2807 100.458 20.1576 99.9417 20.1576C99.3972 20.1576 98.964 20.2784 98.642 20.5198C98.32 20.7566 98.107 21.0549 98.0028 21.4147L95.2045 21.1875C95.3465 20.5246 95.6259 19.9517 96.0426 19.4687C96.4592 18.981 96.9966 18.607 97.6548 18.3465C98.3177 18.0814 99.0847 17.9488 99.9559 17.9488C100.562 17.9488 101.142 18.0198 101.696 18.1619C102.255 18.3039 102.749 18.5241 103.18 18.8224C103.616 19.1207 103.959 19.5042 104.21 19.973C104.461 20.437 104.587 20.9933 104.587 21.642V29H101.717V27.4872H101.632C101.457 27.8281 101.222 28.1287 100.929 28.3892C100.635 28.6448 100.283 28.8461 99.8707 28.9929C99.4588 29.1349 98.9829 29.2059 98.4431 29.2059ZM99.3096 27.1179C99.7547 27.1179 100.148 27.0303 100.489 26.8551C100.829 26.6751 101.097 26.4337 101.291 26.1306C101.485 25.8276 101.582 25.4843 101.582 25.1008V23.9431C101.488 24.0047 101.357 24.0615 101.192 24.1136C101.031 24.1609 100.848 24.2059 100.645 24.2485C100.441 24.2864 100.238 24.3219 100.034 24.3551C99.8304 24.3835 99.6458 24.4095 99.4801 24.4332C99.125 24.4853 98.8148 24.5681 98.5497 24.6818C98.2845 24.7954 98.0786 24.9493 97.9318 25.1434C97.785 25.3328 97.7116 25.5696 97.7116 25.8536C97.7116 26.2656 97.8608 26.5804 98.159 26.7983C98.4621 27.0113 98.8456 27.1179 99.3096 27.1179Z" fill="#E15D3A"/>
<path d="M111.62 29V14.4545H117.358C118.461 14.4545 119.401 14.6652 120.178 15.0866C120.954 15.5033 121.546 16.0833 121.953 16.8267C122.365 17.5653 122.571 18.4176 122.571 19.3835C122.571 20.3494 122.363 21.2017 121.946 21.9403C121.53 22.6789 120.926 23.2542 120.135 23.6661C119.349 24.0781 118.398 24.284 117.28 24.284H113.622V21.8196H116.783C117.375 21.8196 117.863 21.7178 118.246 21.5142C118.634 21.3058 118.923 21.0194 119.113 20.6548C119.307 20.2855 119.404 19.8617 119.404 19.3835C119.404 18.9005 119.307 18.4791 119.113 18.1193C118.923 17.7547 118.634 17.473 118.246 17.2741C117.858 17.0705 117.365 16.9687 116.769 16.9687H114.695V29H111.62Z" fill="#E15D3A"/>
<path d="M127.33 29.2059C126.634 29.2059 126.014 29.0852 125.469 28.8437C124.925 28.5975 124.494 28.2353 124.176 27.7571C123.864 27.2741 123.708 26.6728 123.708 25.9531C123.708 25.347 123.819 24.838 124.042 24.4261C124.264 24.0142 124.567 23.6827 124.951 23.4318C125.334 23.1808 125.77 22.9914 126.257 22.8636C126.75 22.7358 127.266 22.6458 127.806 22.5937C128.44 22.5274 128.952 22.4659 129.34 22.409C129.728 22.3475 130.01 22.2575 130.185 22.1392C130.36 22.0208 130.448 21.8456 130.448 21.6136V21.571C130.448 21.1212 130.306 20.7732 130.022 20.5269C129.742 20.2807 129.345 20.1576 128.828 20.1576C128.284 20.1576 127.851 20.2784 127.529 20.5198C127.207 20.7566 126.994 21.0549 126.89 21.4147L124.091 21.1875C124.233 20.5246 124.513 19.9517 124.929 19.4687C125.346 18.981 125.883 18.607 126.542 18.3465C127.204 18.0814 127.971 17.9488 128.843 17.9488C129.449 17.9488 130.029 18.0198 130.583 18.1619C131.141 18.3039 131.636 18.5241 132.067 18.8224C132.503 19.1207 132.846 19.5042 133.097 19.973C133.348 20.437 133.473 20.9933 133.473 21.642V29H130.604V27.4872H130.519C130.344 27.8281 130.109 28.1287 129.816 28.3892C129.522 28.6448 129.169 28.8461 128.757 28.9929C128.345 29.1349 127.87 29.2059 127.33 29.2059ZM128.196 27.1179C128.641 27.1179 129.034 27.0303 129.375 26.8551C129.716 26.6751 129.984 26.4337 130.178 26.1306C130.372 25.8276 130.469 25.4843 130.469 25.1008V23.9431C130.374 24.0047 130.244 24.0615 130.078 24.1136C129.917 24.1609 129.735 24.2059 129.532 24.2485C129.328 24.2864 129.124 24.3219 128.921 24.3551C128.717 24.3835 128.533 24.4095 128.367 24.4332C128.012 24.4853 127.702 24.5681 127.436 24.6818C127.171 24.7954 126.965 24.9493 126.818 25.1434C126.672 25.3328 126.598 25.5696 126.598 25.8536C126.598 26.2656 126.747 26.5804 127.046 26.7983C127.349 27.0113 127.732 27.1179 128.196 27.1179Z" fill="#E15D3A"/>
<path d="M135.821 29V18.0909H138.846V29H135.821ZM137.341 16.6846C136.891 16.6846 136.505 16.5355 136.183 16.2372C135.866 15.9341 135.707 15.5719 135.707 15.1505C135.707 14.7339 135.866 14.3764 136.183 14.0781C136.505 13.7751 136.891 13.6235 137.341 13.6235C137.79 13.6235 138.174 13.7751 138.491 14.0781C138.813 14.3764 138.974 14.7339 138.974 15.1505C138.974 15.5719 138.813 15.9341 138.491 16.2372C138.174 16.5355 137.79 16.6846 137.341 16.6846Z" fill="#E15D3A"/>
<path d="M144.295 22.6931V29H141.27V18.0909H144.153V20.0156H144.281C144.523 19.3811 144.928 18.8792 145.496 18.5099C146.064 18.1358 146.753 17.9488 147.562 17.9488C148.32 17.9488 148.981 18.1145 149.544 18.446C150.107 18.7774 150.545 19.2509 150.858 19.8664C151.17 20.4772 151.327 21.2064 151.327 22.0539V29H148.301V22.5937C148.306 21.9261 148.135 21.4053 147.79 21.0312C147.444 20.6524 146.968 20.463 146.362 20.463C145.955 20.463 145.595 20.5506 145.283 20.7258C144.975 20.901 144.733 21.1567 144.558 21.4929C144.388 21.8243 144.3 22.2244 144.295 22.6931Z" fill="#E15D3A"/>
<path d="M159.514 18.0909V20.3636H152.944V18.0909H159.514ZM154.436 15.4772H157.461V25.6477C157.461 25.927 157.504 26.1448 157.589 26.3011C157.674 26.4526 157.793 26.5591 157.944 26.6207C158.1 26.6822 158.28 26.713 158.484 26.713C158.626 26.713 158.768 26.7012 158.91 26.6775C159.052 26.6491 159.161 26.6278 159.237 26.6136L159.713 28.865C159.561 28.9124 159.348 28.9668 159.073 29.0284C158.799 29.0947 158.465 29.1349 158.072 29.1491C157.343 29.1775 156.704 29.0804 156.154 28.8579C155.61 28.6354 155.186 28.2897 154.883 27.821C154.58 27.3522 154.431 26.7604 154.436 26.0454V15.4772Z" fill="#E15D3A"/>
<path d="M170.425 21.2017L167.655 21.3721C167.607 21.1354 167.506 20.9223 167.349 20.7329C167.193 20.5388 166.987 20.3849 166.731 20.2713C166.481 20.1529 166.18 20.0937 165.829 20.0937C165.361 20.0937 164.965 20.1931 164.643 20.392C164.321 20.5861 164.16 20.8465 164.16 21.1733C164.16 21.4337 164.265 21.6538 164.473 21.8338C164.681 22.0137 165.039 22.1581 165.545 22.267L167.52 22.6647C168.58 22.8825 169.371 23.2329 169.892 23.7159C170.413 24.1988 170.673 24.8333 170.673 25.6193C170.673 26.3342 170.463 26.9616 170.041 27.5014C169.624 28.0411 169.052 28.4626 168.322 28.7656C167.598 29.0639 166.762 29.213 165.815 29.213C164.371 29.213 163.221 28.9124 162.364 28.311C161.511 27.705 161.012 26.8811 160.865 25.8394L163.841 25.6832C163.931 26.1235 164.149 26.4597 164.494 26.6917C164.84 26.919 165.283 27.0326 165.822 27.0326C166.353 27.0326 166.779 26.9308 167.101 26.7272C167.428 26.5189 167.593 26.2514 167.598 25.9247C167.593 25.6501 167.477 25.4251 167.25 25.25C167.023 25.07 166.672 24.9327 166.199 24.838L164.31 24.4616C163.244 24.2485 162.451 23.8792 161.93 23.3536C161.414 22.8281 161.156 22.1581 161.156 21.3437C161.156 20.6429 161.346 20.0393 161.724 19.5326C162.108 19.026 162.645 18.6354 163.337 18.3608C164.033 18.0861 164.847 17.9488 165.78 17.9488C167.158 17.9488 168.242 18.24 169.033 18.8224C169.828 19.4048 170.292 20.1979 170.425 21.2017Z" fill="#E15D3A"/>
</svg>
